<svg width="157" height="145" viewBox="0 0 157 145" fill="none" xmlns="http://www.w3.org/2000/svg">
<path d="M151.456 97.3496C147.867 132.647 146.67 148.8 93.4257 143.415C38.3858 149.996 38.5805 128.675 36.5913 97.3496C34.198 59.6594 65.9059 40.5151 93.4257 40.5151C126.467 40.5151 153.251 63.8472 151.456 97.3496Z" fill="#526EFF"/>
<ellipse cx="73.5556" cy="88.3761" rx="19.1442" ry="21.5373" fill="#384C8C"/>
<ellipse cx="121.782" cy="87.7121" rx="19.1442" ry="21.5373" fill="#384C8C"/>
<ellipse cx="73.5556" cy="84.7868" rx="19.1442" ry="21.5373" fill="#F0F3FF"/>
<ellipse cx="68.8756" cy="91.1592" rx="10.804" ry="11.4793" fill="#222222"/>
<ellipse cx="121.416" cy="84.7868" rx="19.1442" ry="21.5373" fill="#F0F3FF"/>
<ellipse cx="116.144" cy="91.1592" rx="10.804" ry="11.4793" fill="#222222"/>
<path d="M54.0202 60.7727H139.777L145.855 85.7571H48.6182L54.0202 60.7727Z" fill="#526EFF"/>
<path d="M85.0819 0.588788C114.431 4.31087 134.781 16.2354 149.906 56.4852L38.2644 57.2305C25.878 64.3272 20.8066 72.4759 9.45361 87.7829C9.45361 87.7829 14.3314 61.4265 20.9779 46.0512C33.2225 17.726 49.7887 -3.88715 85.0819 0.588788Z" fill="#92A7FF"/>
<circle cx="12.1546" cy="86.4324" r="12.1546" fill="#DCE8FF"/>
<mask id="mask0_831_2704" style="mask-type:alpha" maskUnits="userSpaceOnUse" x="9" y="0" width="141" height="88">
<path d="M85.0819 0.588788C114.431 4.31087 134.781 16.2354 149.906 56.4852L38.2644 57.2305C25.878 64.3272 20.8066 72.4759 9.45361 87.7829C9.45361 87.7829 14.3314 61.4265 20.9779 46.0512C33.2225 17.726 49.7887 -3.88715 85.0819 0.588788Z" fill="#92A7FF"/>
</mask>
<g mask="url(#mask0_831_2704)">
<path d="M40.7632 32.9415C36.2983 27.7923 16.2061 59.4222 16.2061 59.4222C16.2061 59.4222 35.5541 8.66653 47.4606 12.3449C59.3671 16.0233 56.3905 55.7444 56.3905 55.7444L40.7632 57.2155C40.7632 57.2155 45.2281 38.0907 40.7632 32.9415Z" fill="#B6C7FF"/>
<path d="M117.075 21.8388C113.99 11.6186 102.638 -1.35034 102.638 -1.35034C102.638 -1.35034 123.644 12.923 132.233 26.1868C139.48 37.3788 144.504 58.0719 144.504 58.0719H114.909C114.909 58.0719 121.17 35.4049 117.075 21.8388Z" fill="#B6C7FF"/>
<path d="M85.9337 -6.75244L66.5238 -5.30028C66.5238 -5.30028 73.172 13.5523 72.2749 25.9211C71.3145 39.1611 60.7727 57.8685 60.7727 57.8685L95.2792 60.7728C95.2792 60.7728 101.437 39.5103 99.5925 25.9211C97.7295 12.199 85.9337 -6.75244 85.9337 -6.75244Z" fill="#B6C7FF"/>
</g>
<path d="M37.4105 57.2805C37.7879 55.3852 39.4514 54.0203 41.3839 54.0203H147.687C149.619 54.0203 151.283 55.3852 151.66 57.2805L155.694 77.5381C156.193 80.0442 154.276 82.3809 151.721 82.3809H37.35C34.7946 82.3809 32.8774 80.0442 33.3765 77.5381L37.4105 57.2805Z" fill="#DCE8FF"/>
</svg>
