<svg width="130" height="118" viewBox="0 0 130 118" fill="none" xmlns="http://www.w3.org/2000/svg">
<path d="M129.792 64.149C125.741 103.989 124.39 122.221 64.2931 116.143C2.16951 123.571 2.3893 99.5063 0.144116 64.149C-2.55722 21.6081 33.2315 0 64.2931 0C101.586 0 131.818 26.3349 129.792 64.149Z" fill="#526EFF"/>
<ellipse cx="41.8657" cy="54.02" rx="21.6081" ry="24.3091" fill="#60648C"/>
<ellipse cx="41.8657" cy="49.9683" rx="21.6081" ry="24.3091" fill="#F0F3FF"/>
<ellipse cx="49.9687" cy="48.6183" rx="13.5051" ry="14.8556" fill="#222222"/>
<ellipse cx="95.8859" cy="49.9683" rx="21.6081" ry="24.3091" fill="#F0F3FF"/>
<ellipse cx="103.989" cy="48.6178" rx="13.5051" ry="14.8556" fill="#222222"/>
<path d="M121.545 78.3294C121.545 89.5173 109.755 98.5869 95.2104 98.5869C80.666 98.5869 68.8755 89.5173 68.8755 78.3294C68.8755 63.4738 80.666 58.0718 95.2104 58.0718C109.755 58.0718 122.22 64.8243 121.545 78.3294Z" fill="#526EFF"/>
</svg>
